<svg width="16" height="16" viewBox="0 0 16 16" fill="none" xmlns="http://www.w3.org/2000/svg">
<path fill-rule="evenodd" clip-rule="evenodd" d="M8 16C12.4183 16 16 12.4183 16 8C16 3.58172 12.4183 0 8 0C3.58172 0 0 3.58172 0 8C0 12.4183 3.58172 16 8 16ZM7.10007 9.53L10.2001 5.4C10.2789 5.29494 10.3776 5.20643 10.4906 5.13953C10.6036 5.07262 10.7286 5.02862 10.8586 5.01005C10.9887 4.99148 11.121 4.99869 11.2483 5.03129C11.3755 5.06388 11.495 5.12121 11.6001 5.2C11.7051 5.27879 11.7936 5.37751 11.8605 5.49051C11.9275 5.60351 11.9714 5.72858 11.99 5.85858C12.0086 5.98858 12.0014 6.12097 11.9688 6.24818C11.9362 6.37539 11.8789 6.49494 11.8001 6.6L8.21007 11.4C8.10627 11.5392 7.9742 11.6548 7.82253 11.7392C7.67085 11.8237 7.50302 11.8751 7.33007 11.89H7.21007C6.90421 11.8851 6.61005 11.7717 6.38007 11.57L4.33007 9.75C4.13116 9.5723 4.01098 9.32287 3.99598 9.05657C3.98098 8.79027 4.07237 8.52891 4.25007 8.33C4.42776 8.13109 4.6772 8.01091 4.9435 7.99591C5.2098 7.98091 5.47116 8.0723 5.67007 8.25L7.10007 9.53Z" fill="#42C1C9"/>
</svg>
