<svg width="67" height="64" viewBox="0 0 67 64" fill="none" xmlns="http://www.w3.org/2000/svg">
<path d="M33.1973 64C51.5316 64 66.3946 49.6731 66.3946 32C66.3946 14.3269 51.5316 0 33.1973 0C14.8629 0 0 14.3269 0 32C0 49.6731 14.8629 64 33.1973 64Z" fill="#42C1C9"/>
<path d="M34.56 32.7624C34.0533 32.9295 33.52 33.0066 33 33.0066C32.48 33.0066 31.9467 32.9295 31.44 32.7624L17 28.1355V40.7695C17 42.0676 17.9467 43.1344 19.1067 43.1344H46.88C48.04 43.1344 48.9867 42.0676 48.9867 40.7566V28.1227L34.56 32.7624Z" fill="white"/>
<path d="M32.0667 30.2948C32.68 30.4876 33.32 30.4876 33.9333 30.2948L49 25.4623V22.3777C49 21.0668 48.0533 20 46.8933 20H19.1067C17.9467 20 17 21.0668 17 22.3777V25.4623L32.0667 30.2948Z" fill="white"/>
</svg>
