<svg width="67" height="64" viewBox="0 0 67 64" fill="none" xmlns="http://www.w3.org/2000/svg">
<path d="M33.1973 64C51.5316 64 66.3946 49.6731 66.3946 32C66.3946 14.3269 51.5316 0 33.1973 0C14.8629 0 0 14.3269 0 32C0 49.6731 14.8629 64 33.1973 64Z" fill="#42C1C9"/>
<path fill-rule="evenodd" clip-rule="evenodd" d="M23.8773 47.9999V26.4201H16.4263V47.9999H23.8773V47.9999ZM20.1603 23.4617C22.752 23.4617 24.3718 21.8017 24.3718 19.7309C24.3206 17.6107 22.752 16 20.2115 16C17.6709 16 16 17.6107 16 19.7309C16 21.8017 17.6198 23.4617 20.1092 23.4617H20.1603Z" fill="white"/>
<path fill-rule="evenodd" clip-rule="evenodd" d="M28.0036 48H35.4547V35.9527C35.4547 35.3118 35.5058 34.6708 35.6934 34.1941C36.239 32.9122 37.4496 31.5645 39.5127 31.5645C42.2066 31.5645 43.2808 33.5367 43.2808 36.4458V48H50.7148V35.624C50.7148 29.0005 47.049 25.9106 42.1384 25.9106C38.1316 25.9106 36.3583 28.0801 35.3865 29.5429H35.4376V26.4201H27.9866C28.0889 28.4417 28.0036 48 28.0036 48Z" fill="white"/>
</svg>
